<?xml version="1.0" encoding="UTF-8" standalone="no"?>
<svg
   xmlns:dc="http://purl.org/dc/elements/1.1/"
   xmlns:cc="http://creativecommons.org/ns#"
   xmlns:rdf="http://www.w3.org/1999/02/22-rdf-syntax-ns#"
   xmlns:svg="http://www.w3.org/2000/svg"
   xmlns="http://www.w3.org/2000/svg"
   xmlns:sodipodi="http://sodipodi.sourceforge.net/DTD/sodipodi-0.dtd"
   xmlns:inkscape="http://www.inkscape.org/namespaces/inkscape"
   height="300"
   viewBox="0 0 300 300"
   width="300"
   id="svg4136"
   version="1.1"
   inkscape:version="0.91pre4 r13712"
   sodipodi:docname="like-food-logo.svg"
   inkscape:export-filename="C:\Imagem\Lucas\repositorios\bitbucket\like-food\files\logo\like-food-icone.png"
   inkscape:export-xdpi="90"
   inkscape:export-ydpi="90">
  <metadata
     id="metadata4158">
    <rdf:RDF>
      <cc:Work
         rdf:about="">
        <dc:format>image/svg+xml</dc:format>
        <dc:type
           rdf:resource="http://purl.org/dc/dcmitype/StillImage" />
        <dc:title />
      </cc:Work>
    </rdf:RDF>
  </metadata>
  <defs
     id="defs4156">
    <linearGradient
       x1="0"
       y1="0"
       x2="1"
       y2="0"
       gradientUnits="userSpaceOnUse"
       gradientTransform="matrix(65.213425,0,0,-65.213425,670.19722,-400.06674)"
       spreadMethod="pad"
       id="linearGradient6108">
      <stop
         style="stop-opacity:1;stop-color:#9d523f"
         offset="0"
         id="stop6110" />
      <stop
         style="stop-opacity:1;stop-color:#9d523f"
         offset="0.13080549"
         id="stop6112" />
      <stop
         style="stop-opacity:1;stop-color:#752a19"
         offset="0.539496"
         id="stop6114" />
      <stop
         style="stop-opacity:1;stop-color:#632b23"
         offset="1"
         id="stop6116" />
    </linearGradient>
    <linearGradient
       x1="0"
       y1="0"
       x2="1"
       y2="0"
       gradientUnits="userSpaceOnUse"
       gradientTransform="matrix(85.718,0,0,-85.718,401.05892,-396.71884)"
       spreadMethod="pad"
       id="linearGradient6084">
      <stop
         style="stop-opacity:1;stop-color:#9d523f"
         offset="0"
         id="stop6086" />
      <stop
         style="stop-opacity:1;stop-color:#9d523f"
         offset="0.13080549"
         id="stop6088" />
      <stop
         style="stop-opacity:1;stop-color:#752a19"
         offset="0.539496"
         id="stop6090" />
      <stop
         style="stop-opacity:1;stop-color:#632b23"
         offset="1"
         id="stop6092" />
    </linearGradient>
    <linearGradient
       x1="0"
       y1="0"
       x2="1"
       y2="0"
       gradientUnits="userSpaceOnUse"
       gradientTransform="matrix(200.00866,0,0,-200.00866,477.96911,-400.74218)"
       spreadMethod="pad"
       id="linearGradient6048">
      <stop
         style="stop-opacity:1;stop-color:#e56620"
         offset="0"
         id="stop6050" />
      <stop
         style="stop-opacity:1;stop-color:#f5881f"
         offset="0.538922"
         id="stop6052" />
      <stop
         style="stop-opacity:1;stop-color:#fbb144"
         offset="0.818434"
         id="stop6054" />
      <stop
         style="stop-opacity:1;stop-color:#fab04f"
         offset="1"
         id="stop6056" />
    </linearGradient>
  </defs>
  <sodipodi:namedview
     pagecolor="#ffffff"
     bordercolor="#666666"
     borderopacity="1"
     objecttolerance="10"
     gridtolerance="10"
     guidetolerance="10"
     inkscape:pageopacity="0"
     inkscape:pageshadow="2"
     inkscape:window-width="1366"
     inkscape:window-height="705"
     id="namedview4154"
     showgrid="false"
     inkscape:zoom="1.9021172"
     inkscape:cx="68.063819"
     inkscape:cy="135.28225"
     inkscape:window-x="-8"
     inkscape:window-y="-8"
     inkscape:window-maximized="1"
     inkscape:current-layer="svg4136" />
  <rect
     style="fill:#ffffff;fill-opacity:1;stroke:none;stroke-width:5;stroke-miterlimit:4;stroke-dasharray:none;stroke-dashoffset:0"
     id="rect4206"
     width="300"
     height="300"
     x="0"
     y="0"
     inkscape:export-xdpi="90"
     inkscape:export-ydpi="90" />
  <path
     inkscape:connector-curvature="0"
     style="fill:#f2f2f2;fill-opacity:1;fill-rule:nonzero;stroke:none"
     d="m 123.96213,90.87107 c -3.44708,0 -6.24155,2.794457 -6.24155,6.241539 l 0,0.462842 c 0,3.447079 2.79447,6.241539 6.24155,6.241539 l -0.69426,0 0,12.94592 5.55408,0 0,-12.94592 22.74044,0 c 3.00752,-4.074774 5.2438,-8.665038 7.19446,-12.94592 l -34.79472,0 z"
     id="path9554"
     inkscape:export-xdpi="90"
     inkscape:export-ydpi="90" />
  <path
     style="fill:#f2f2f2;stroke:none"
     d="m 141.91195,111.66718 c -45.742713,3.63254 -82.940859,35.52689 -91.3906,76.8111 a 258.43132,90.772941 0 0 1 16.369564,-2.49795 C 74.67831,149.23212 103.0163,120.97052 138.20239,115.77147 l 3.70956,-4.10429 z m 60.43471,12.87106 c 3.00351,5.10976 4.92561,10.0612 3.94775,13.39515 12.55378,11.98446 21.82903,27.85533 26.08245,45.90967 a 258.43132,90.772941 0 0 1 17.81935,2.1849 c -6.12987,-26.1404 -23.85823,-48.24944 -47.84955,-61.48972 z"
     id="path4563"
     inkscape:connector-curvature="0"
     inkscape:export-xdpi="90"
     inkscape:export-ydpi="90" />
  <path
     style="fill:#9d523f;fill-opacity:1;stroke:none"
     d="m 183.71734,49.735006 -11.27834,38.694851 0.0545,0.0209 c -3.19755,12.428578 2.55114,15.425268 9.77408,21.345128 l -0.16334,-0.0477 -19.2011,65.8799 a 219.86623,77.227112 0 0 1 13.5517,0.23836 l 10.99247,-37.65344 -0.0206,-0.007 7.23528,-24.82324 c 0,0 14.89684,-0.76554 18.88118,-12.98676 l 0.0545,0.0139 11.25793,-38.681226 -6.43215,-1.871783 -12.87786,36.823066 -8.58296,-2.497989 10.41391,-38.415778 -5.96928,-1.735663 -12.05427,37.932525 -7.31696,-2.13723 7.8887,-38.320501 -6.20751,-1.769676 z"
     id="path4571"
     inkscape:connector-curvature="0"
     inkscape:export-xdpi="90"
     inkscape:export-ydpi="90" />
  <text
     transform="scale(0.95733142,1.0445703)"
     xml:space="preserve"
     style="font-style:normal;font-variant:normal;font-weight:bold;font-stretch:normal;font-size:59.03956223px;line-height:125%;font-family:Aharoni;-inkscape-font-specification:'Aharoni Bold';text-align:end;letter-spacing:0px;word-spacing:0px;writing-mode:lr-tb;text-anchor:end;fill:#f2811f;fill-opacity:1;stroke:none;stroke-width:1px;stroke-linecap:butt;stroke-linejoin:miter;stroke-opacity:1"
     x="130.78775"
     y="225.54121"
     id="text4575"
     sodipodi:linespacing="125%"><tspan
       style="font-style:normal;font-variant:normal;font-weight:bold;font-stretch:normal;font-family:Aharoni;-inkscape-font-specification:'Aharoni Bold';text-align:end;letter-spacing:-4.18190098px;text-anchor:end;fill:#f2811f;fill-opacity:1"
       id="tspan4577"
       sodipodi:role="line"
       x="126.82491"
       y="225.54121">LIKE</tspan></text>
  <text
     sodipodi:linespacing="125%"
     id="text4579"
     y="225.14319"
     x="131.99068"
     style="font-style:normal;font-variant:normal;font-weight:bold;font-stretch:normal;font-size:58.70730591px;line-height:125%;font-family:Aharoni;-inkscape-font-specification:'Aharoni Bold';text-align:start;letter-spacing:0px;word-spacing:0px;writing-mode:lr-tb;text-anchor:start;fill:#9d523f;fill-opacity:1;stroke:none;stroke-width:1px;stroke-linecap:butt;stroke-linejoin:miter;stroke-opacity:1"
     xml:space="preserve"
     transform="scale(0.95733142,1.0445703)"><tspan
       y="225.14319"
       x="131.99068"
       sodipodi:role="line"
       id="tspan4581"
       style="font-style:normal;font-variant:normal;font-weight:bold;font-stretch:normal;font-family:Aharoni;-inkscape-font-specification:'Aharoni Bold';letter-spacing:-4.18190098px;fill:#9d523f;fill-opacity:1">FOOD</tspan></text>
  <path
     id="path4585"
     d="m 137.92185,182.1999 c -2.13253,0 -3.64679,-1.64376 -4.16688,-1.96542 -1.66468,-1.02349 -1.25949,-1.3096 -4.27133,-2.20773 l -8.43405,0.0209 c -1.05064,0 -1.9028,-0.84384 -1.9028,-1.88402 l 0,-40.14005 c 0,-1.04223 0.85216,-1.88397 1.9028,-1.88397 l 11.15766,0 c 0.26311,-0.14219 1.08192,-0.83966 2.53357,-2.47927 2.56281,-2.88654 4.82898,-6.81323 7.02211,-10.29087 1.77326,-2.81135 3.44629,-5.47024 5.21332,-7.65916 2.41658,-3.0056 3.93294,-4.10632 5.39709,-5.17363 1.50594,-1.09029 1.19892,-1.33884 4.19616,-5.16947 4.80396,-6.136508 5.45769,-10.040233 6.09264,-13.816548 0.11292,-0.668373 0.22757,-1.359725 0.36554,-2.048985 0.54096,-2.729893 2.93458,-5.553773 6.00702,-5.551686 1.10698,-0.0021 2.18682,0.363427 3.21027,1.081931 3.92462,2.754956 5.98612,10.77336 5.20915,16.099468 -0.79996,5.47023 -3.29593,12.54247 -5.59974,15.10109 -2.00094,2.22652 -2.94503,4.43216 -2.53144,7.82416 0.1962,1.61454 2.67976,1.67929 2.78626,1.68347 l 15.53765,0.0585 c 4.49063,0.0376 12.9748,1.44119 12.97689,10.11544 0,3.95595 -1.60829,6.41432 -3.47973,7.84714 1.77954,1.58323 3.16643,3.63846 2.66931,7.53801 -0.48039,3.78465 -2.35602,6.04463 -4.53866,7.20172 1.20516,1.61038 2.01973,3.93925 1.48713,7.09523 -0.51173,3.03898 -2.36857,5.15691 -4.2776,6.18454 0.90022,1.37434 1.45997,3.47972 0.98794,5.99242 -1.11326,5.89421 -6.21796,6.23465 -8.39646,6.38297 l -0.67464,0.0439 -46.47918,0 z"
     inkscape:connector-curvature="0"
     style="fill:#efefef"
     inkscape:export-xdpi="90"
     inkscape:export-ydpi="90" />
  <path
     id="path4587"
     d="m 197.1461,141.76117 c 1.87144,-1.43282 3.47973,-3.89119 3.47973,-7.84714 -0.002,-8.67427 -8.48417,-10.07994 -12.97693,-10.11545 l -15.53761,-0.0606 c -0.10664,-0.004 -2.58995,-0.0668 -2.7863,-1.68346 -0.41355,-3.392 0.53055,-5.59764 2.53148,-7.82416 2.30382,-2.55862 4.79978,-9.63086 5.59974,-15.101089 0.77697,-5.326109 -1.28454,-13.344514 -5.20915,-16.099474 -1.02345,-0.718499 -2.10328,-1.084018 -3.2103,-1.081927 -1.155,0 -2.21606,0.398936 -3.11629,1.044332 l 0.0607,0.0376 c 3.92461,2.754959 5.98615,10.773364 5.20916,16.099479 -0.79996,5.470219 -3.29593,12.542469 -5.59975,15.101079 -2.00093,2.22653 -2.945,4.43216 -2.53143,7.82416 0.19619,1.61454 2.67975,1.67929 2.78625,1.68347 l 15.53765,0.0585 c 4.49063,0.0376 12.9748,1.44118 12.97689,10.11544 0,3.95595 -1.60829,6.41431 -3.47973,7.84714 1.77954,1.5832 3.16644,3.63846 2.66934,7.53801 -0.48039,3.78465 -2.35604,6.04459 -4.53869,7.20172 1.20516,1.61038 2.01973,3.93925 1.48713,7.09522 -0.51172,3.03902 -2.36857,5.15695 -4.2776,6.18455 0.90022,1.37435 1.45997,3.47976 0.98794,5.99242 -1.11326,5.89421 -6.21796,6.23469 -8.39645,6.38297 l -0.67465,0.0439 6.26602,0 0.67464,-0.0439 c 2.17849,-0.14636 7.28111,-0.48667 8.39646,-6.38297 0.47413,-2.51266 -0.0878,-4.61807 -0.98794,-5.99242 1.90904,-1.0276 3.76587,-3.14553 4.27759,-6.18455 0.53261,-3.15806 -0.28192,-5.48693 -1.48714,-7.09522 2.18267,-1.15919 4.05619,-3.41707 4.53869,-7.20172 0.49503,-3.89746 -0.89187,-5.95272 -2.66931,-7.53592 z m -76.16336,36.27186 0.0666,0.0139 2.21192,-0.007 -0.0439,-0.0139 -2.23488,0.007 z m 76.16336,-36.27186 c 1.87144,-1.43282 3.47973,-3.89119 3.47973,-7.84714 -0.002,-8.67427 -8.48417,-10.07994 -12.97693,-10.11545 l -15.53761,-0.0606 c -0.10664,-0.004 -2.58995,-0.0668 -2.7863,-1.68346 -0.41355,-3.392 0.53055,-5.59764 2.53148,-7.82416 2.30382,-2.55862 4.79978,-9.63086 5.59974,-15.101089 0.77697,-5.326109 -1.28454,-13.344514 -5.20915,-16.099474 -1.02345,-0.718499 -2.10328,-1.084018 -3.2103,-1.081927 -1.155,0 -2.21606,0.398936 -3.11629,1.044332 l 0.0607,0.0376 c 3.92461,2.754959 5.98615,10.773364 5.20916,16.099479 -0.79996,5.470219 -3.29593,12.542469 -5.59975,15.101079 -2.00093,2.22653 -2.945,4.43216 -2.53143,7.82416 0.19619,1.61454 2.67975,1.67929 2.78625,1.68347 l 15.53765,0.0585 c 4.49063,0.0376 12.9748,1.44118 12.97689,10.11544 0,3.95595 -1.60829,6.41431 -3.47973,7.84714 1.77954,1.5832 3.16644,3.63846 2.66934,7.53801 -0.48039,3.78465 -2.35604,6.04459 -4.53869,7.20172 1.20516,1.61038 2.01973,3.93925 1.48713,7.09522 -0.51172,3.03902 -2.36857,5.15695 -4.2776,6.18455 0.90022,1.37435 1.45997,3.47976 0.98794,5.99242 -1.11326,5.89421 -6.21796,6.23469 -8.39645,6.38297 l -0.67465,0.0439 6.26602,0 0.67464,-0.0439 c 2.17849,-0.14636 7.28111,-0.48667 8.39646,-6.38297 0.47413,-2.51266 -0.0878,-4.61807 -0.98794,-5.99242 1.90904,-1.0276 3.76587,-3.14553 4.27759,-6.18455 0.53261,-3.15806 -0.28192,-5.48693 -1.48714,-7.09522 2.18267,-1.15919 4.05619,-3.41707 4.53869,-7.20172 0.49503,-3.89746 -0.89187,-5.95272 -2.66931,-7.53592 z m -76.16336,36.27186 0.0666,0.0139 2.21192,-0.007 -0.0439,-0.0139 -2.23488,0.007 z"
     inkscape:connector-curvature="0"
     style="fill:#dcdcdc"
     inkscape:export-xdpi="90"
     inkscape:export-ydpi="90" />
  <path
     id="path4589"
     d="m 119.15097,134.19809 6.30362,0 0,43.86208 -6.30362,0 0,-43.86208 z"
     inkscape:connector-curvature="0"
     style="fill:#d7d7d7"
     inkscape:export-xdpi="90"
     inkscape:export-ydpi="90" />
  <path
     id="path4591"
     d="m 116.39812,184.31156 -23.115348,0 c -2.660943,0 -4.82898,-2.17222 -4.82898,-4.83944 l -6.900973,-44.6558 c 0,-2.6714 2.165946,-4.84153 4.826925,-4.84153 l 30.018376,0 c 2.66304,0 4.82898,2.17013 4.82898,4.84153 l 0,44.6558 c -0.002,2.66722 -2.16803,4.83944 -4.82898,4.83944 z"
     inkscape:connector-curvature="0"
     style="fill:#e2503c;fill-opacity:1"
     inkscape:export-xdpi="90"
     inkscape:export-ydpi="90" />
  <path
     id="path4593"
     d="m 108.69719,165.52395 c 2.30799,0 4.17942,1.86938 4.17942,4.17528 0,2.30377 -1.87143,4.17106 -4.17942,4.17106 -2.30799,0 -4.18151,-1.86938 -4.18151,-4.17106 0,-2.30799 1.87143,-4.17528 4.18151,-4.17528 z"
     inkscape:connector-curvature="0"
     style="fill:#ffffff"
     inkscape:export-xdpi="90"
     inkscape:export-ydpi="90" />
  <path
     id="path4595"
     d="m 120.57546,180.13419 -23.115347,0 c -2.660948,0 -4.828985,-2.17219 -4.828985,-4.83944 l -6.900973,-44.65576 0.06064,-0.60363 c -2.38316,0.2945 -4.237868,2.31215 -4.237868,4.78096 l 6.900937,44.6558 c 0,2.66722 2.165946,4.83944 4.829015,4.83944 l 23.115315,0 c 2.45627,0 4.46767,-1.85684 4.76633,-4.23581 l -0.58899,0.0586 z"
     inkscape:connector-curvature="0"
     style="fill:#9d523f;fill-opacity:1"
     inkscape:export-xdpi="90"
     inkscape:export-ydpi="90" />
  <path
     id="path4597"
     d="m 108.69719,173.87029 c -2.30799,0 -4.18151,-1.86938 -4.18151,-4.17106 0,-0.60989 0.13765,-1.18637 0.37386,-1.70855 -1.44956,0.65376 -2.46255,2.10538 -2.46255,3.7972 0,2.30381 1.87144,4.1711 4.18152,4.1711 1.6981,0 3.15391,-1.01509 3.80765,-2.46674 -0.52637,0.23803 -1.10489,0.37805 -1.71897,0.37805 z"
     inkscape:connector-curvature="0"
     style="fill:#9d523f;fill-opacity:1"
     inkscape:export-xdpi="90"
     inkscape:export-ydpi="90" />
  <rect
     y="244.39149"
     x="52.784058"
     height="5.8735127"
     width="193.4102"
     id="rect4783"
     style="fill:#f2f2f2;fill-opacity:1;stroke:none;stroke-width:5;stroke-miterlimit:4;stroke-dasharray:none;stroke-dashoffset:0"
     inkscape:export-xdpi="90"
     inkscape:export-ydpi="90" />
</svg>
